<svg width="780" height="742" viewBox="0 0 780 742" fill="none" xmlns="http://www.w3.org/2000/svg">
<path opacity="0.937" fill-rule="evenodd" clip-rule="evenodd" d="M125.432 0.170331C343.577 -0.283887 561.719 0.170331 779.858 1.53304C730.665 75.7878 682.493 150.737 635.339 226.38C683.486 228.65 731.66 230.013 779.858 230.468C670.673 401.038 561.146 571.377 451.282 741.483C410.609 679.259 370.615 616.575 331.303 553.43C221.469 558.856 111.034 560.674 0 558.881C0 546.161 0 533.444 0 520.725C102.726 521.632 205.433 520.725 308.126 517.999C246.659 421.923 184.851 326.081 122.705 230.468C171.787 229.56 220.869 228.651 269.951 227.743C221.095 152.154 172.921 76.2966 125.432 0.170331ZM196.328 38.3261C367.21 37.8718 538.086 38.3261 708.962 39.6889C668.431 101.553 628.438 163.784 588.984 226.38C498.106 229.559 407.212 230.013 316.306 227.743C275.914 164.68 235.921 101.542 196.328 38.3261ZM196.328 267.261C229.063 266.807 261.784 267.261 294.492 268.624C346.756 349.931 399.018 431.241 451.282 512.548C503.884 431.473 556.148 350.163 608.071 268.624C641.701 266.807 675.333 266.807 708.962 268.624C623.069 401.714 537.175 534.807 451.282 667.897C364.876 535.12 279.893 401.575 196.328 267.261ZM340.847 269.986C414.007 266.815 487.63 266.361 561.716 268.624C525.924 326.1 489.113 382.879 451.282 438.962C415.084 381.993 378.272 325.669 340.847 269.986Z" fill="#0A0A0A"/>
<path opacity="0.93" fill-rule="evenodd" clip-rule="evenodd" d="M725.319 376.279C738.045 376.279 750.768 376.279 763.494 376.279C763.494 485.296 763.494 594.312 763.494 703.329C750.768 703.329 738.045 703.329 725.319 703.329C725.319 594.312 725.319 485.296 725.319 376.279Z" fill="#0A0A0A"/>
</svg>
